<svg width="30" height="44" viewBox="0 0 30 44" fill="none" xmlns="http://www.w3.org/2000/svg">
<path d="M19.3535 16.0283H18.333C18.2236 15.2173 17.8273 14.4723 17.2158 13.9284C16.6044 13.3845 15.8183 13.0777 15 13.0635C14.1818 13.0777 13.3957 13.3845 12.7842 13.9284C12.1728 14.4723 11.7764 15.2173 11.667 16.0283H10.647C10.0858 16.0287 9.54769 16.2517 9.15078 16.6485C8.75387 17.0452 8.53061 17.5833 8.53003 18.1445V25.86C8.53053 26.4212 8.75363 26.9592 9.15038 27.356C9.54712 27.7528 10.0851 27.9761 10.6462 27.9767H19.3532C19.9145 27.9762 20.4526 27.7531 20.8495 27.3562C21.2463 26.9594 21.4695 26.4213 21.47 25.86V18.1445C21.4694 17.5834 21.2463 17.0454 20.8495 16.6487C20.4527 16.2519 19.9147 16.0288 19.3535 16.0283ZM15 14.1631C15.5274 14.1746 16.0351 14.3657 16.4392 14.7048C16.8433 15.044 17.1195 15.5109 17.2222 16.0283H12.7778C12.8806 15.5109 13.1568 15.044 13.5608 14.7048C13.9649 14.3657 14.4726 14.1746 15 14.1631ZM20.37 25.86C20.3697 26.1296 20.2626 26.388 20.072 26.5787C19.8814 26.7694 19.623 26.8767 19.3534 26.8771H10.6465C10.377 26.8767 10.1186 26.7693 9.92804 26.5787C9.73749 26.388 9.63032 26.1296 9.63003 25.86V18.1445C9.63035 17.875 9.73755 17.6166 9.92814 17.426C10.1187 17.2354 10.3771 17.1282 10.6466 17.1279H19.3536C19.6231 17.1283 19.8815 17.2355 20.072 17.4261C20.2625 17.6167 20.3697 17.875 20.37 18.1445V25.86Z" fill="black" fill-opacity="0.8"/>
</svg>
