<svg width="32" height="44" viewBox="0 0 32 44" fill="none" xmlns="http://www.w3.org/2000/svg">
<path d="M22.548 27.202L18.678 23.332C19.379 22.403 19.8 21.251 19.8 20C19.8 16.94 17.311 14.45 14.25 14.45C11.19 14.45 8.70001 16.94 8.70001 20C8.70001 23.061 11.19 25.55 14.25 25.55C15.501 25.55 16.653 25.129 17.582 24.428L21.452 28.298C21.603 28.449 21.802 28.526 22 28.526C22.198 28.526 22.396 28.45 22.548 28.298C22.851 27.995 22.851 27.505 22.548 27.202ZM9.80001 20C9.80001 17.546 11.797 15.55 14.25 15.55C16.704 15.55 18.7 17.547 18.7 20C18.7 22.453 16.704 24.45 14.25 24.45C11.796 24.45 9.80001 22.454 9.80001 20Z" fill="black" fill-opacity="0.8"/>
</svg>
