<svg width="30" height="44" viewBox="0 0 30 44" fill="none" xmlns="http://www.w3.org/2000/svg">
<path d="M21.0729 17.6825C20.552 18.0014 20.1206 18.4473 19.8189 18.9783C19.5173 19.5094 19.3553 20.1083 19.3481 20.719C19.3502 21.4064 19.5538 22.078 19.9338 22.6508C20.3138 23.2235 20.8535 23.6722 21.486 23.9413C21.2366 24.7459 20.8676 25.5084 20.3912 26.2031C19.7096 27.1843 18.9969 28.1654 17.9125 28.1654C16.8281 28.1654 16.5492 27.5354 15.2995 27.5354C14.0808 27.5354 13.647 28.1861 12.6555 28.1861C11.664 28.1861 10.9721 27.2772 10.1768 26.1618C9.12628 24.5992 8.54892 22.7667 8.51401 20.8842C8.51401 17.7858 10.528 16.1437 12.5109 16.1437C13.5644 16.1437 14.4423 16.8356 15.1033 16.8356C15.7333 16.8356 16.7145 16.1023 17.9125 16.1023C18.5285 16.0864 19.1389 16.2222 19.69 16.4978C20.2411 16.7733 20.716 17.1802 21.0729 17.6825ZM17.3445 14.7907C17.8726 14.1695 18.1716 13.3858 18.1914 12.5707C18.1923 12.4632 18.1819 12.356 18.1604 12.2507C17.2533 12.3393 16.4144 12.7717 15.8159 13.4591C15.2827 14.0556 14.9725 14.8183 14.938 15.6176C14.9384 15.7148 14.9488 15.8117 14.969 15.9068C15.0405 15.9203 15.1131 15.9272 15.1859 15.9275C15.604 15.8942 16.0109 15.7763 16.382 15.5809C16.7531 15.3855 17.0806 15.1166 17.3445 14.7907Z" fill="black" fill-opacity="0.8"/>
</svg>
